<?xml version="1.0" standalone="no"?>
<!DOCTYPE svg PUBLIC "-//W3C//DTD SVG 20010904//EN"
 "http://www.w3.org/TR/2001/REC-SVG-20010904/DTD/svg10.dtd">
<svg version="1.0" xmlns="http://www.w3.org/2000/svg"
 width="1204.000000pt" height="1204.000000pt" viewBox="0 0 1204.000000 1204.000000"
 preserveAspectRatio="xMidYMid meet">
<metadata>
Created by potrace 1.14, written by Peter Selinger 2001-2017
</metadata>
<g transform="translate(0.000000,1204.000000) scale(0.100000,-0.100000)"
fill="#000000" stroke="none">
<path d="M0 6020 l0 -6020 6020 0 6020 0 0 6020 0 6020 -6020 0 -6020 0 0
-6020z m2425 2039 c601 -56 979 -305 1095 -720 31 -113 44 -296 30 -445 -27
-302 -148 -497 -376 -608 -95 -45 -175 -72 -280 -92 -117 -22 -114 -21 -114
-38 0 -10 19 -18 58 -26 171 -33 334 -94 433 -161 114 -77 221 -227 263 -369
69 -229 58 -596 -23 -805 -84 -214 -269 -413 -488 -524 -476 -240 -1339 -263
-2019 -55 -66 20 -126 38 -134 41 -13 4 -24 83 -61 461 -25 251 -44 458 -43
460 1 2 58 -14 126 -36 359 -117 716 -172 1033 -158 401 17 536 101 538 337 2
184 -72 269 -273 314 -58 13 -173 19 -517 28 l-443 11 0 421 0 421 423 12
c471 13 554 23 657 75 110 55 160 152 147 288 -13 150 -93 226 -278 266 -114
25 -509 24 -679 -1 -153 -22 -403 -78 -563 -127 -72 -21 -133 -36 -136 -34 -3
3 14 193 37 423 24 229 42 422 42 428 0 6 35 25 78 42 163 64 446 134 662 163
210 28 555 31 805 8z m7525 -5 c165 -18 335 -52 497 -99 181 -53 237 -78 241
-107 44 -352 95 -858 87 -858 -6 0 -46 14 -90 31 -110 42 -352 103 -515 130
-184 30 -530 33 -663 6 -200 -41 -304 -93 -418 -206 -164 -163 -228 -389 -229
-803 0 -106 2 -118 18 -118 12 0 24 21 45 78 54 154 167 304 294 390 183 124
376 175 663 175 245 0 393 -29 558 -111 263 -129 428 -378 498 -749 25 -135
31 -516 10 -661 -51 -343 -194 -602 -435 -782 -264 -198 -679 -301 -1151 -286
-535 16 -903 153 -1179 441 -161 168 -264 362 -329 620 -53 212 -57 270 -57
860 0 469 3 556 18 660 62 413 193 705 422 944 272 283 636 429 1155 465 100
7 423 -5 560 -20z m-2670 -1979 l0 -1915 -540 0 -540 0 0 1375 c0 1235 -2
1375 -15 1375 -9 0 -184 -67 -389 -150 -206 -82 -378 -150 -382 -150 -5 0 -2
225 6 501 l15 501 450 188 450 189 473 0 472 1 0 -1915z m-2609 939 c266 -50
409 -247 409 -564 0 -193 -55 -347 -156 -439 -103 -95 -180 -121 -365 -128
-232 -9 -362 30 -466 140 -94 99 -132 203 -140 382 -16 342 123 554 397 608
100 20 220 20 321 1z m38 -1809 c178 -42 305 -174 352 -365 21 -84 18 -329 -5
-405 -55 -183 -165 -294 -337 -341 -87 -24 -250 -29 -354 -11 -173 31 -288
113 -354 252 -46 97 -56 155 -56 325 1 141 3 161 27 228 73 204 204 304 438
335 59 8 221 -2 289 -18z"/>
<path d="M9318 5870 c-158 -27 -315 -114 -408 -226 -35 -43 -40 -55 -40 -99 0
-75 35 -228 68 -298 42 -90 119 -169 205 -212 155 -76 378 -86 544 -23 79 29
163 113 193 193 19 49 24 86 28 195 8 244 -48 366 -198 434 -92 42 -263 57
-392 36z"/>
</g>
</svg>
