<?xml version="1.0" standalone="no"?>
<!DOCTYPE svg PUBLIC "-//W3C//DTD SVG 20010904//EN"
 "http://www.w3.org/TR/2001/REC-SVG-20010904/DTD/svg10.dtd">
<svg version="1.0" xmlns="http://www.w3.org/2000/svg"
 width="1248.000000pt" height="1248.000000pt" viewBox="0 0 1248.000000 1248.000000"
 preserveAspectRatio="xMidYMid meet">
<metadata>
Created by potrace 1.14, written by Peter Selinger 2001-2017
</metadata>
<g transform="translate(0.000000,1248.000000) scale(0.100000,-0.100000)"
fill="#000000" stroke="none">
<path d="M69 9615 c-1 0 -2 -93 -3 -207 -1 -202 0 -208 19 -209 11 0 258 -1
548 -1 l528 -1 -44 -46 c-122 -126 -192 -199 -302 -312 l-120 -124 0 -183 c0
-101 2 -186 5 -191 3 -4 50 -7 105 -8 55 0 116 -3 135 -7 19 -4 42 -8 50 -9
31 -5 96 -30 120 -47 14 -10 28 -17 31 -16 4 0 29 -18 57 -41 94 -80 151 -195
156 -317 2 -65 -7 -139 -21 -176 -4 -8 -7 -17 -8 -20 -23 -69 -93 -157 -150
-190 -22 -13 -41 -22 -41 -19 -1 2 -11 -5 -23 -15 -12 -11 -21 -16 -21 -11 0
4 -6 3 -12 -3 -23 -19 -204 -36 -214 -20 -3 5 -9 6 -13 4 -12 -8 -112 19 -166
45 -52 25 -175 135 -175 156 0 7 -4 13 -10 13 -5 0 -10 6 -10 14 0 7 -7 19
-15 26 -8 7 -13 15 -11 19 2 3 -4 23 -14 44 -10 21 -21 51 -25 67 -4 17 -10
30 -15 30 -4 0 -89 -40 -189 -90 -99 -49 -185 -90 -190 -90 -29 0 54 -214 105
-271 8 -8 14 -19 14 -22 0 -22 146 -168 215 -214 229 -155 469 -201 770 -149
68 12 119 29 210 71 118 54 254 165 301 244 10 17 22 31 26 31 4 0 8 7 8 15 0
8 5 15 10 15 6 0 10 7 10 15 0 8 9 29 20 47 27 43 67 171 80 254 11 69 14 223
5 286 -28 204 -136 400 -292 528 -66 55 -198 126 -257 139 -16 4 -31 11 -33
16 -1 6 111 123 250 262 l252 252 0 208 0 208 -828 0 c-455 1 -828 1 -828 0z"/>
<path d="M3757 9600 c-20 -25 -37 -59 -37 -74 0 -7 -7 -19 -15 -26 -8 -7 -15
-18 -15 -25 0 -7 -18 -52 -41 -100 -22 -49 -68 -149 -101 -224 -84 -192 -97
-219 -128 -283 -16 -31 -26 -59 -22 -62 3 -3 0 -6 -6 -6 -7 0 -12 -6 -12 -14
0 -8 -22 -62 -50 -120 -27 -58 -50 -108 -50 -110 0 -2 -20 -47 -45 -100 -25
-53 -45 -99 -45 -101 0 -2 -18 -43 -41 -92 -22 -48 -47 -104 -56 -123 -8 -19
-26 -56 -39 -82 -13 -27 -21 -48 -19 -48 3 0 -4 -16 -15 -35 -11 -20 -20 -39
-20 -43 0 -11 28 -39 76 -78 22 -18 53 -45 70 -60 37 -35 149 -132 180 -157
12 -9 25 -14 27 -10 3 5 24 53 47 108 23 55 50 119 61 142 10 24 19 50 19 58
0 8 4 15 8 15 4 0 14 17 21 38 8 20 21 55 31 77 19 44 32 77 35 85 1 3 9 23
19 45 10 22 33 78 53 125 19 47 39 90 43 95 5 6 8 14 8 18 0 9 110 271 176
420 14 31 27 57 28 57 2 0 3 -420 3 -932 0 -822 2 -933 15 -934 8 -1 20 -3 25
-4 20 -4 96 -1 105 5 6 3 10 2 10 -2 0 -5 17 -7 38 -5 46 4 95 3 100 -2 2 -2
17 0 33 4 16 5 29 6 29 2 0 -6 50 -7 80 -3 3 1 5 579 5 1286 0 1135 -2 1285
-15 1286 -8 0 -138 1 -288 2 -233 2 -275 0 -285 -13z"/>
<path d="M5379 9612 c-11 -3 -121 -156 -164 -230 -5 -9 -12 -19 -15 -22 -3 -3
-27 -39 -55 -80 -27 -41 -53 -76 -57 -78 -5 -2 -8 -8 -8 -14 0 -8 -60 -100
-93 -143 -4 -5 -31 -46 -61 -90 -29 -44 -108 -163 -177 -265 -161 -241 -222
-359 -243 -473 -3 -15 -7 -35 -10 -45 -19 -67 -25 -243 -12 -337 30 -204 121
-389 261 -530 33 -33 74 -71 90 -85 33 -28 146 -99 185 -117 73 -32 152 -62
185 -69 6 -1 24 -5 40 -9 66 -14 84 -16 193 -19 62 -2 132 1 155 6 23 4 56 10
72 13 82 10 234 77 346 151 67 44 200 167 232 214 56 82 73 109 90 140 18 34
65 151 73 180 20 81 26 114 30 170 11 128 -8 293 -43 380 -3 8 -7 20 -8 26
-10 42 -103 205 -151 264 -82 99 -203 197 -319 256 -69 36 -168 76 -200 80 -5
1 -12 3 -15 4 -40 15 -184 33 -262 33 l-57 -1 100 147 c55 80 136 198 179 261
43 63 83 120 89 127 6 7 11 17 11 23 0 5 5 10 10 10 6 0 10 6 10 14 0 8 3 16
8 18 12 5 63 88 55 89 -23 3 -452 4 -464 1z m190 -1136 c56 -13 100 -30 156
-61 189 -105 285 -310 251 -538 -26 -181 -145 -329 -323 -402 -34 -13 -76 -26
-93 -27 -17 -1 -33 -5 -35 -8 -6 -10 -134 -1 -205 14 -68 15 -177 82 -242 147
-38 38 -68 75 -68 84 0 8 -4 15 -9 15 -4 0 -18 26 -29 58 -76 209 -37 424 101
566 49 50 117 97 167 115 19 7 44 17 55 22 52 23 204 32 274 15z"/>
<path d="M2339 8956 c-2 -3 -16 -7 -30 -9 -72 -13 -166 -92 -203 -171 -45 -95
-22 -229 54 -305 86 -85 186 -117 305 -97 94 16 190 90 228 175 25 56 31 153
12 198 -8 18 -12 33 -9 33 2 0 -9 19 -26 41 -60 83 -145 129 -254 135 -40 3
-74 3 -77 0z"/>
<path d="M2350 7950 c-101 -18 -205 -92 -244 -174 -45 -96 -25 -222 49 -304
68 -76 138 -106 245 -107 73 0 93 4 142 28 186 91 232 313 96 463 -37 40 -116
81 -173 89 -22 4 -47 8 -55 9 -8 2 -35 0 -60 -4z"/>
<path d="M5787 6564 c-1 -1 -27 -5 -57 -9 -88 -11 -93 -12 -140 -25 -25 -7
-52 -13 -60 -15 -25 -5 -132 -42 -175 -61 -22 -10 -43 -17 -47 -16 -5 1 -8 -1
-8 -5 0 -5 -25 -19 -55 -33 -30 -14 -55 -28 -55 -32 0 -5 -6 -8 -13 -8 -7 0
-22 -8 -33 -17 -11 -10 -42 -33 -69 -52 -84 -58 -295 -279 -295 -309 0 -6 -4
-12 -8 -14 -24 -9 -133 -229 -166 -333 -15 -49 -40 -150 -50 -210 -6 -34 -19
-184 -19 -230 0 -49 14 -249 18 -255 2 -4 7 -22 10 -41 19 -112 70 -259 126
-369 40 -78 70 -132 79 -140 3 -3 16 -18 28 -35 56 -75 71 -92 133 -154 70
-71 114 -107 194 -161 28 -19 53 -38 57 -44 4 -6 8 -8 8 -3 0 4 17 -3 38 -16
89 -56 273 -125 379 -143 15 -3 35 -7 43 -9 83 -24 429 -25 509 -1 9 3 29 7
44 10 169 29 453 165 578 276 145 129 255 264 326 400 37 70 90 192 99 229 2
9 10 43 19 76 20 81 31 140 40 221 6 52 6 251 0 289 -3 17 -7 50 -9 75 -5 45
-11 77 -20 108 -3 9 -7 28 -10 42 -17 99 -141 375 -180 402 -6 4 -7 8 -3 8 13
0 -82 118 -158 195 -117 120 -210 188 -352 259 -154 78 -293 121 -453 142 -42
5 -288 12 -293 8z m289 -464 c72 -14 204 -58 224 -75 8 -7 25 -16 37 -19 25
-8 120 -76 177 -127 111 -99 230 -312 260 -464 4 -16 9 -41 12 -55 19 -90 9
-327 -20 -445 -58 -239 -237 -460 -461 -570 -134 -65 -241 -89 -400 -89 -135
0 -284 26 -322 56 -7 6 -13 8 -13 4 0 -9 -117 51 -170 88 -41 28 -58 41 -115
93 -36 32 -115 130 -115 142 0 6 -4 11 -10 11 -5 0 -10 6 -10 14 0 8 -4 16 -8
18 -10 4 -72 135 -72 153 0 8 -4 16 -9 19 -5 3 -11 20 -14 38 -3 18 -8 49 -12
68 -20 105 -23 133 -23 220 0 87 6 150 22 237 3 18 18 65 32 105 69 193 153
303 339 446 22 17 172 90 208 102 140 45 329 57 463 30z"/>
<path d="M7526 6512 c-2 -9 -4 -613 -4 -1342 l1 -1325 31 -5 c17 -3 47 -3 66
0 19 3 67 3 105 0 39 -3 96 -3 128 0 32 3 62 3 68 -1 6 -3 21 -4 35 -1 l25 4
-1 212 c-1 117 -1 216 0 221 2 6 2 15 0 20 -2 13 -2 208 0 220 1 6 2 15 0 20
-2 13 -2 208 0 220 1 6 2 15 1 20 -5 25 -2 135 3 144 4 5 2 12 -2 15 -5 3 -7
17 -5 30 l5 25 618 0 618 0 2 -537 c1 -295 2 -544 2 -552 0 -8 -1 -20 -2 -25
-7 -33 1 -36 70 -34 39 1 72 0 75 -2 2 -3 29 -2 60 1 30 3 55 4 55 1 0 -4 44
-4 97 -1 l98 5 0 1340 0 1340 -227 2 -228 1 -1 -121 c0 -67 0 -316 0 -553 l0
-431 -619 0 -619 -1 -3 220 c-2 121 0 225 4 231 4 6 4 15 1 20 -5 9 -7 198 -3
222 1 6 2 15 0 20 -2 13 -2 208 0 220 1 6 2 15 0 20 -1 6 -1 42 0 82 l1 72
-225 0 c-202 0 -226 -2 -230 -17z"/>
<path d="M10064 6517 c-2 -7 -3 -610 -2 -1342 l3 -1330 45 -5 c25 -3 72 -3
105 0 33 3 74 3 90 0 17 -3 44 -3 60 0 17 4 41 4 54 1 13 -4 40 -5 61 -3 l37
4 0 371 c0 205 2 377 3 382 1 6 1 12 0 15 -2 7 -3 613 0 625 1 6 2 15 0 20 -4
22 -2 596 2 600 3 3 11 -7 19 -22 8 -16 53 -95 102 -176 48 -82 87 -153 87
-158 0 -5 4 -9 10 -9 5 0 9 -3 8 -7 -1 -5 5 -19 14 -33 18 -29 80 -135 116
-200 13 -25 28 -49 32 -55 4 -5 19 -30 32 -55 14 -25 55 -96 92 -158 36 -62
77 -132 90 -155 13 -23 47 -82 76 -132 29 -49 60 -103 70 -120 9 -16 90 -156
180 -310 90 -154 176 -305 193 -335 41 -76 56 -90 91 -90 55 0 129 1 135 2 3
0 9 0 14 -1 7 -2 138 -3 302 -2 l85 1 -1 1344 0 1345 -227 -2 -227 -2 -2
-1004 c-1 -551 -3 -1005 -5 -1007 -3 -2 -46 69 -98 159 -51 89 -110 189 -130
222 -20 33 -39 67 -43 75 -4 8 -18 33 -31 55 -14 22 -31 51 -39 65 -7 14 -47
81 -87 150 -40 69 -81 141 -92 160 -11 19 -69 118 -128 220 -59 102 -117 201
-128 220 -30 54 -93 163 -107 185 -7 11 -12 23 -11 26 1 4 -6 15 -15 25 -9 11
-27 39 -40 63 -28 51 -23 43 -137 236 l-87 150 -283 2 c-209 1 -284 -2 -288
-10z"/>
<path d="M3956 6403 c-3 -3 -16 -6 -28 -7 -23 -1 -23 -2 -28 -174 -3 -96 -3
-175 0 -177 3 -2 3 -38 0 -80 -3 -42 -3 -78 0 -80 3 -2 3 -38 0 -80 -3 -42 -3
-78 0 -80 3 -2 3 -38 0 -80 -3 -42 -3 -78 0 -80 3 -2 3 -38 0 -80 -3 -42 -3
-78 0 -80 3 -2 3 -38 0 -80 -3 -42 -3 -78 0 -80 3 -2 3 -38 0 -80 -3 -42 -3
-78 0 -80 3 -2 3 -38 0 -80 -3 -42 -3 -79 0 -83 3 -4 3 -92 0 -195 l-5 -188
-145 287 c-237 469 -230 456 -244 442 -7 -7 -50 -47 -96 -88 -46 -41 -115
-105 -154 -141 l-70 -67 68 -133 c37 -74 71 -141 75 -149 5 -8 22 -42 39 -75
16 -33 46 -90 66 -127 19 -38 33 -68 29 -68 -3 0 0 -6 6 -14 11 -13 68 -123
215 -413 l77 -152 97 -3 c53 -2 125 -1 160 2 35 3 65 3 67 1 3 -2 184 -4 224
-2 12 1 21 50 10 57 -5 2 -4 15 1 28 4 12 5 29 0 36 -4 7 -4 26 0 41 5 16 5
31 0 34 -5 3 -6 16 -1 28 4 12 5 33 1 47 -3 14 -3 41 0 60 3 19 3 46 0 60 -4
14 -3 32 1 41 4 8 4 21 -1 29 -5 8 -5 21 0 30 5 9 5 22 0 30 -5 8 -5 21 0 30
5 9 5 22 1 28 -4 7 -5 34 -1 60 3 27 3 60 -1 74 -4 14 -3 32 1 39 5 7 5 20 0
29 -5 9 -5 22 0 30 5 8 5 21 0 30 -5 9 -5 22 0 30 5 8 6 18 3 24 -3 5 -5 32
-4 60 1 28 1 60 1 71 -1 11 -1 27 -1 35 3 81 1 141 -3 149 -4 5 -2 12 3 16 7
3 7 15 1 30 -6 15 -6 27 0 30 5 3 6 15 0 29 -4 12 -4 29 0 36 5 8 6 18 3 24
-8 11 -7 105 0 113 3 3 2 15 -3 27 -4 13 -5 29 0 36 4 7 4 25 0 41 -5 15 -6
30 -2 33 7 8 6 212 -3 225 -3 6 -2 11 4 11 6 0 6 11 1 30 -5 17 -5 32 0 35 5
3 6 15 0 29 -4 12 -4 29 0 36 5 8 6 18 3 24 -3 5 -5 32 -4 60 1 28 1 60 1 71
-1 11 -1 27 -1 35 3 80 2 143 -3 147 -3 3 -1 13 4 22 5 10 5 23 0 31 -4 7 -4
24 0 36 5 13 5 26 1 29 -5 3 -6 20 -2 38 13 54 -6 80 -56 78 -7 -1 -19 -1 -25
-2 -7 0 -39 1 -70 2 -32 2 -60 0 -64 -3 -3 -4 -18 -3 -33 2 -16 4 -34 4 -41 0
-7 -4 -25 -4 -41 0 -15 5 -30 6 -33 3z"/>
</g>
</svg>
